PathFileType	4	(X/Y/Z)	D:\Share\Shared_Data\Ergonomics\Sit To Stand Pertubation\S3\Perturbed.trc
DataRate	CameraRate	NumFrames	NumMarkers	Units	OrigDataRate	OrigDataStartFrame	OrigNumFrames	
100	100	9	18	m	100	8463	221
Frame#	Time	R_ASIS			R_Pelvis			V_Sacral			L_Pelvis			L_ASIS			Clavical			R_Acromium			L_Acromium			Sternum			Torso			R_Thigh_Med			R_Thigh_Lat			R_Thigh			R_Shank_Med			R_Shank_Lat			R_Shank			R_Heel			R_Toe			
		X1	Y1	Z1	X2	Y2	Z2	X3	Y3	Z3	X4	Y4	Z4	X5	Y5	Z5	X6	Y6	Z6	X7	Y7	Z7	X8	Y8	Z8	X9	Y9	Z9	X10	Y10	Z10	X11	Y11	Z11	X12	Y12	Z12	X13	Y13	Z13	X14	Y14	Z14	X15	Y15	Z15	X16	Y16	Z16	X17	Y17	Z17	X18	Y18	Z18	

8463	84.62	-0.0120335	0.6391181	0.14578929	-0.11899901	0.63554333	0.20388589	-0.22739636	0.63681055	0.015720757	-0.11229893	0.64936182	-0.18665361	-0.0040777669	0.64316632	-0.13469415	0.048530724	1.0164068	-0.0056095362	0.02297941	1.0821937	0.16918176	0.014490669	1.08471	-0.16228279	0.054426941	0.93745294	-0.00025784439	0.047051785	1.002809	-0.067076797	0.32771167	0.47252295	0.072001419	0.31480621	0.4545249	0.18961414	0.1462377	0.58048773	0.11038657	0.29627692	0.10695467	0.096639496	0.2836037	0.092961823	0.17740857	0.2814292	0.27350662	0.20034572	0.22412921	0.057952564	0.13928699	0.44037064	0.056680988	0.1184604
8464	84.63	-0.012023222	0.63859625	0.14567578	-0.1187291	0.63568182	0.20389807	-0.22718768	0.63759009	0.015798215	-0.11215951	0.64963855	-0.18658916	-0.0039236135	0.64295941	-0.13484668	0.053499718	1.0145555	-0.0053527403	0.029230612	1.0804662	0.16923773	0.020093689	1.0829462	-0.16135793	0.058189404	0.93526178	-0.00023779584	0.051695038	1.0009362	-0.066905228	0.32750098	0.47246371	0.071941002	0.31456158	0.45450153	0.18953204	0.14602977	0.58043378	0.11024203	0.29620078	0.10696311	0.096637329	0.28352008	0.093026955	0.17748474	0.28122418	0.27347571	0.20028354	0.22410931	0.057926807	0.13929204	0.44035101	0.056697514	0.11845753
8465	84.64	-0.011738069	0.63811401	0.14565495	-0.11841504	0.6358446	0.20391862	-0.22691107	0.63846368	0.015874565	-0.1119518	0.64995636	-0.18651949	-0.0036711721	0.64272113	-0.1349902	0.058718094	1.0126575	-0.004995348	0.035774387	1.0786324	0.16930473	0.025969675	1.0810474	-0.16024039	0.062178783	0.93289587	-0.00020460872	0.056509956	0.9989516	-0.066710007	0.32728235	0.47238937	0.071859474	0.31431735	0.45447873	0.18942398	0.14578163	0.58035529	0.11006107	0.29610001	0.10699174	0.096734177	0.28338217	0.093240173	0.17767258	0.28103455	0.27345993	0.20021577	0.22409152	0.057897789	0.13929991	0.44032913	0.056716236	0.11845321
8466	84.65	-0.011248895	0.63764264	0.145705	-0.11805089	0.6360379	0.20394608	-0.22655511	0.63943951	0.015948413	-0.11166985	0.65031848	-0.18645566	-0.0032972255	0.64246185	-0.13512292	0.064188934	1.010717	-0.004531136	0.04261911	1.0766884	0.16937952	0.032145081	1.0791155	-0.1589984	0.066392845	0.93033459	-0.00016403015	0.061506584	0.99683673	-0.066504852	0.32705313	0.47230597	0.071751091	0.31406897	0.45445645	0.18928978	0.14549321	0.58025085	0.10984245	0.29598593	0.10702975	0.096889603	0.2832204	0.093529404	0.17791467	0.28085632	0.27345511	0.20014209	0.22407498	0.057864243	0.13931068	0.44030441	0.05673629	0.11844853
8467	84.66	-0.010616591	0.63715509	0.14580605	-0.11763004	0.63626477	0.20397531	-0.22610793	0.64052527	0.016018513	-0.11130683	0.65072717	-0.18641335	-0.0027828734	0.64218945	-0.13524725	0.069919052	1.0087197	-0.0039727645	0.049769119	1.0746237	0.16945718	0.038657265	1.0772529	-0.1577256	0.070830811	0.92756635	-0.00011927597	0.06671666	0.99457794	-0.066297394	0.32681384	0.47221738	0.071613518	0.31381351	0.45443414	0.18913034	0.14517834	0.58012683	0.1095889	0.29586765	0.10706601	0.097064018	0.28306018	0.093825996	0.17815929	0.28068393	0.27345648	0.20006197	0.22405878	0.057824982	0.13932405	0.44027655	0.056756401	0.1184448
8468	84.67	-0.0098808126	0.6366311	0.14594307	-0.11714481	0.63652509	0.20399797	-0.22555701	0.6417265	0.016083799	-0.11085476	0.65118237	-0.1864165	-0.0021311417	0.64190015	-0.13537099	0.075920364	1.0066292	-0.0033595414	0.057224735	1.0724276	0.16953322	0.045536591	1.0754933	-0.15649406	0.075495865	0.92460278	-6.8291239e-05	0.072179741	0.9921665	-0.066088234	0.32656784	0.47212482	0.071447891	0.31355087	0.45441098	0.18894794	0.1448609	0.57999487	0.10930722	0.29574976	0.10709216	0.097229324	0.28291443	0.094084274	0.17837463	0.28051147	0.27345944	0.19997498	0.22404193	0.057779297	0.13933925	0.44024548	0.05677549	0.1184431
8469	84.68	-0.0090585451	0.63605615	0.14610684	-0.11658656	0.63681519	0.20400346	-0.22488826	0.64304651	0.016143654	-0.11030435	0.65168292	-0.1865	-0.0013640705	0.64157886	-0.1355065	0.082206482	1.0043993	-0.0027452409	0.064982864	1.0700924	0.16960495	0.052794003	1.0737758	-0.15535023	0.080396057	0.92148718	-1.9137739e-06	0.077926178	0.98959802	-0.06587394	0.32631906	0.47202795	0.071257149	0.31328375	0.45438583	0.18874588	0.14456526	0.57986633	0.1090058	0.29563492	0.10710396	0.097370377	0.28278564	0.09428566	0.17854942	0.28033316	0.27345975	0.19988101	0.22402354	0.057727169	0.13935521	0.4402114	0.056792927	0.11844402
8470	84.69	-0.0081462803	0.6354201	0.14629329	-0.11594503	0.63712854	0.20398036	-0.22408621	0.64448682	0.0161982	-0.10964468	0.65222687	-0.18670833	-0.00050219393	0.64120673	-0.13566812	0.088785034	1.0019952	-0.0021712904	0.073037354	1.0676152	0.16967073	0.060423702	1.0719851	-0.15433167	0.08554129	0.91828027	9.4402969e-05	0.083970329	0.9868728	-0.065649529	0.32607108	0.4719259	0.071044479	0.31301663	0.45435825	0.18852788	0.14431029	0.57974841	0.10869185	0.29552789	0.10710036	0.09747995	0.28267294	0.094429092	0.17868391	0.28014462	0.27345395	0.19978041	0.2240034	0.057669178	0.13937083	0.4401749	0.056808548	0.11844797
8471	84.7	-0.0071253166	0.63471606	0.14650203	-0.11520782	0.63745618	0.20391789	-0.22313527	0.64604858	0.01624844	-0.1088629	0.65281274	-0.18708781	0.00045023322	0.64076746	-0.13586862	0.095653374	0.99940125	-0.0016546259	0.081379707	1.0649982	0.16972849	0.068411896	1.0700081	-0.15345952	0.090938431	0.91503375	0.00023613943	0.090314133	0.98399518	-0.065409462	0.32582669	0.47181793	0.070812698	0.31275424	0.4543277	0.18829744	0.14410907	0.57964508	0.10836968	0.29543506	0.10708232	0.097554749	0.28257599	0.094521698	0.17878311	0.27994354	0.27343979	0.19967319	0.2239819	0.057606602	0.13938538	0.44013724	0.056822681	0.11845523
